<?xml version="1.0" encoding="UTF-8" standalone="no"?>
<!-- Created with Inkscape (http://www.inkscape.org/) -->

<svg
   xmlns:dc="http://purl.org/dc/elements/1.1/"
   xmlns:cc="http://creativecommons.org/ns#"
   xmlns:rdf="http://www.w3.org/1999/02/22-rdf-syntax-ns#"
   xmlns:svg="http://www.w3.org/2000/svg"
   xmlns="http://www.w3.org/2000/svg"
   xmlns:sodipodi="http://sodipodi.sourceforge.net/DTD/sodipodi-0.dtd"
   xmlns:inkscape="http://www.inkscape.org/namespaces/inkscape"
   width="210mm"
   height="297mm"
   viewBox="0 0 744.09448819 1052.3622047"
   id="svg2"
   version="1.1"
   inkscape:version="0.91 r13725"
   sodipodi:docname="maviruses.svg">
  <defs
     id="defs4" />
  <sodipodi:namedview
     id="base"
     pagecolor="#ffffff"
     bordercolor="#666666"
     borderopacity="1.0"
     inkscape:pageopacity="0.0"
     inkscape:pageshadow="2"
     inkscape:zoom="0.98994949"
     inkscape:cx="323.91896"
     inkscape:cy="307.17962"
     inkscape:document-units="px"
     inkscape:current-layer="layer1"
     showgrid="false"
     inkscape:window-width="1920"
     inkscape:window-height="1017"
     inkscape:window-x="-8"
     inkscape:window-y="-8"
     inkscape:window-maximized="1" />
  <metadata
     id="metadata7">
    <rdf:RDF>
      <cc:Work
         rdf:about="">
        <dc:format>image/svg+xml</dc:format>
        <dc:type
           rdf:resource="http://purl.org/dc/dcmitype/StillImage" />
        <dc:title></dc:title>
      </cc:Work>
    </rdf:RDF>
  </metadata>
  <g
     inkscape:label="Layer 1"
     inkscape:groupmode="layer"
     id="layer1">
    <path
       sodipodi:type="star"
       style="fill:#ff0000"
       id="path3514"
       sodipodi:sides="50"
       sodipodi:cx="141.92641"
       sodipodi:cy="833.638"
       sodipodi:r1="64.932732"
       sodipodi:r2="55.326595"
       sodipodi:arg1="1.2988209"
       sodipodi:arg2="1.2691063"
       inkscape:flatsided="false"
       inkscape:rounded="25.529447"
       inkscape:randomized="0"
       d="m 159.3696,896.18394 c -233.024912,88.93232 242.98228,-61.49047 -1.00376,-9.71813 -333.96769,70.86589 324.73296,-69.38258 -6.97287,11.41115 -242.333616,59.0253 248.77309,-30.55185 0.22216,-9.76731 -340.2161,28.44984 330.86829,-28.13564 -8.34809,10.44724 -247.82057,28.18741 250.64061,0.8686 1.44458,-9.66244 -341.0991,-14.41488 331.78563,13.55501 -9.59164,9.31856 -249.39925,-3.09501 248.55537,32.27535 2.64421,-9.4052 -336.60277,-57.05227 327.4705,55.03189 -10.68394,8.04294 -247.04475,-34.32862 242.55026,63.1731 3.80215,-8.99963 -326.79801,-98.78991 317.99098,95.64088 -11.60774,6.64046 -240.79421,-65.02085 232.71999,93.07457 4.90012,-8.45213 -311.83946,-138.96957 303.49654,134.74155 -12.34848,5.13326 -230.74621,-94.68765 219.21959,121.50819 5.92081,-7.77133 -291.963,-176.9576 284.21579,171.71732 -12.89447,3.54511 -217.0592,-122.86118 202.26196,148.02561 6.84813,-6.96798 -267.48212,-212.1549 260.45277,205.98489 -13.23712,1.90105 -199.94903,-149.09711 182.11454,172.20854 7.66745,-6.05473 -238.78288,-244.0064 232.58227,237.00407 -13.371004,0.22701 -179.685549,-172.9817 159.095064,193.67556 8.365854,-5.04601 -206.3179,-272.00977 201.0438,264.28547 -13.294026,-1.45061 C -68.756395,675.41696 221.39849,1081.6435 96.76424,865.59752 -73.834915,569.87414 263.09899,1152.9965 83.756854,862.49216 -47.264743,650.25902 189.6885,1089.6484 93.114767,859.68519 -39.075195,544.91193 222.11727,1165.6652 80.599153,854.97406 -22.789434,627.99308 157.22527,1093.6159 90.235083,853.36208 -1.4609711,524.50311 179.8709,1173.0977 78.408619,847.11948 4.2835418,608.97028 124.52077,1093.4833 88.170602,846.72791 38.414557,508.96953 137.02611,1175.1767 77.219798,839.05228 33.527228,593.49063 92.090764,1089.2529 86.953883,839.8873 79.922529,498.55616 94.258611,1171.8693 77.05144,830.8997 64.480434,581.79825 60.446697,1080.9912 86.604113,832.94814 122.40834,493.42723 52.242857,1163.2279 77.906198,822.7903 96.65501,574.07752 30.087614,1068.8286 87.126808,826.01986 165.20196,493.66363 11.641466,1149.3887 79.770594,814.85198 129.54354,570.45022 1.4922957,1052.957 88.513726,819.21172 207.62851,499.26163 -26.905253,1130.5699 82.615223,807.20993 162.62736,570.97355 -24.888293,1033.6265 90.742994,812.63109 249.0189,510.13295 -62.789397,1107.0683 86.395226,799.98466 195.38471,575.63926 -48.638114,1011.1421 93.779455,806.38175 288.72038,526.10613 -95.445049,1079.2545 91.050988,793.29012 227.29899,584.37376 -69.382619,985.85836 97.575222,800.56226 326.10683,546.92927 -124.35721,1047.5672 96.509086,787.2319 c 161.357814,-190.1926 -183.30374,170.94211 5.561344,8.0325 258.51821,-222.99041 -251.14035,217.2417 0.61301,-13.35888 183.92291,-168.46937 -203.28306,146.62014 4.51076,8.66619 284.42782,-188.83115 -276.38765,184.05246 2.28248,-13.17671 203.58744,-144.08929 -220.05649,119.98587 3.38903,9.1632 305.85185,-151.6939 -297.27614,147.96059 3.91597,-12.78674 220.04126,-117.43682 -233.3595,91.45936 2.21385,9.5157 322.45239,-112.16434 -313.47641,109.53531 5.48769,-12.1951 233.02491,-88.93232 -242.98229,61.49047 1.00376,9.71813 333.96768,-70.86588 -324.73297,69.38258 6.97287,-11.41115 242.33361,-59.0253 -248.7731,30.55185 -0.22216,9.76731 340.2161,-28.44984 -330.8683,28.13564 8.34808,-10.44724 247.82057,-28.18741 -250.64061,-0.8686 -1.44458,9.66245 341.09911,14.41488 -331.78562,-13.55502 9.59165,-9.31857 249.39925,3.09501 -248.555373,-32.27535 -2.64422,9.4052 336.60278,57.05227 -327.4705,-55.03189 10.68394,-8.04294 247.04476,34.32862 -242.550261,-63.1731 -3.80215,8.99963 326.79802,98.78991 -317.99097,-95.64088 11.60774,-6.64046 240.79422,65.02085 -232.719989,-93.07457 -4.90012,8.45213 311.83946,138.96957 -303.49654,-134.74157 12.34848,-5.13326 230.74621,94.68765 -219.219586,-121.5082 -5.92081,7.77133 291.963,176.9576 -284.21578,-171.71729 12.89448,-3.54511 217.05919,122.86118 -202.261965,-148.02557 -6.84814,6.96798 267.48212,212.15491 -260.45277,-205.98493 13.23712,-1.90105 199.94903,149.09711 -182.1145384,-172.20849 -7.66745,6.05474 238.78288,244.00642 -232.582266,-237.00407 13.37101,-0.22702 179.68555,172.9817 -159.09507,-193.67557 -8.36585,5.04601 206.31789,272.00973 -201.043805,-264.28551 13.29402,1.45061 156.58832,194.13826 -133.566569,-212.08828 -8.93232,3.9577 170.59916,295.72342 -166.33475,-287.39901 13.00739,3.10536 131.0216,212.23316 -105.931646,-227.15624 -9.35791,2.80697 132.18996,314.77329 -129.002511,-305.98005 12.51561,4.71113 103.38859,226.98096 -76.62612,-238.6418 -9.63593,1.61198 91.69605,328.85898 -89.63581,-319.73561 11.82646,6.2426 74.12508,238.14918 -46.11214,-246.36383 -9.76198,0.39157 49.75605,337.75841 -48.85551,-328.44874 10.95081,7.67563 43.69257,245.56168 -14.87097,-250.20057 -9.73409,-0.83502 7.03136,341.3311 -7.30473,-331.98205 9.90244,8.9876 12.57101,249.1015 16.60475,-250.09149 -9.55267,-2.04844 -35.80422,339.52094 34.36126,-330.27979 8.69792,10.15784 -18.74882,248.7128 47.81858,-246.03832 -9.22061,-3.22955 -78.07516,332.35625 75.48534,-323.36884 7.35621,11.16787 -49.77295,244.40178 78.2783,-238.10497 -8.74313,-4.35974 -119.114788,319.95012 115.41898,-311.35815 5.8985,12.0018 -80.01214,236.23632 107.50352,-226.41658 -8.12777,-5.42117 -158.275909,302.49819 153.53239,-294.43716 4.34777,12.64643 -108.989487,224.34536 135.03334,-211.15744 -7.38423,-6.39709 -194.940927,280.27565 189.2245,-272.87273 2.72847,13.09163 -136.248009,208.91632 160.4336,-192.56824 -6.52424,-7.27214 -228.531606,253.63296 221.93244,-247.00493 1.06614,13.33037 -161.357814,190.19259 183.30374,-170.94212 -5.56135,-8.0325 -258.51821,222.99039 251.14036,-217.24172 -0.61301,13.35887 -183.9229087,168.46932 203.28307,-146.62014 -4.51075,-8.66618 -284.42783,188.8311 276.38764,-184.05247 -2.28249,13.1767 -203.587434,144.0893 220.05649,-119.98587 -3.38903,-9.16319 -305.85184,151.69389 297.27614,-147.9606 -3.91596,12.78673 -220.041265,117.43686 233.3595,-91.45936 -2.21385,-9.5157 -322.4524,112.16434 313.4764,-109.53531 -5.48769,12.1951 z"
       transform="matrix(0.44424518,0,0,0.44435813,-13.050122,631.92838)" />
    <path
       sodipodi:type="star"
       style="fill:#008080"
       id="path3514-2"
       sodipodi:sides="50"
       sodipodi:cx="141.92641"
       sodipodi:cy="833.638"
       sodipodi:r1="64.932732"
       sodipodi:r2="55.326595"
       sodipodi:arg1="1.2988209"
       sodipodi:arg2="1.2691063"
       inkscape:flatsided="false"
       inkscape:rounded="25.529447"
       inkscape:randomized="0"
       d="m 159.3696,896.18394 c -233.024912,88.93232 242.98228,-61.49047 -1.00376,-9.71813 -333.96769,70.86589 324.73296,-69.38258 -6.97287,11.41115 -242.333616,59.0253 248.77309,-30.55185 0.22216,-9.76731 -340.2161,28.44984 330.86829,-28.13564 -8.34809,10.44724 -247.82057,28.18741 250.64061,0.8686 1.44458,-9.66244 -341.0991,-14.41488 331.78563,13.55501 -9.59164,9.31856 -249.39925,-3.09501 248.55537,32.27535 2.64421,-9.4052 -336.60277,-57.05227 327.4705,55.03189 -10.68394,8.04294 -247.04475,-34.32862 242.55026,63.1731 3.80215,-8.99963 -326.79801,-98.78991 317.99098,95.64088 -11.60774,6.64046 -240.79421,-65.02085 232.71999,93.07457 4.90012,-8.45213 -311.83946,-138.96957 303.49654,134.74155 -12.34848,5.13326 -230.74621,-94.68765 219.21959,121.50819 5.92081,-7.77133 -291.963,-176.9576 284.21579,171.71732 -12.89447,3.54511 -217.0592,-122.86118 202.26196,148.02561 6.84813,-6.96798 -267.48212,-212.1549 260.45277,205.98489 -13.23712,1.90105 -199.94903,-149.09711 182.11454,172.20854 7.66745,-6.05473 -238.78288,-244.0064 232.58227,237.00407 -13.371004,0.22701 -179.685549,-172.9817 159.095064,193.67556 8.365854,-5.04601 -206.3179,-272.00977 201.0438,264.28547 -13.294026,-1.45061 C -68.756395,675.41696 221.39849,1081.6435 96.76424,865.59752 -73.834915,569.87414 263.09899,1152.9965 83.756854,862.49216 -47.264743,650.25902 189.6885,1089.6484 93.114767,859.68519 -39.075195,544.91193 222.11727,1165.6652 80.599153,854.97406 -22.789434,627.99308 157.22527,1093.6159 90.235083,853.36208 -1.4609711,524.50311 179.8709,1173.0977 78.408619,847.11948 4.2835418,608.97028 124.52077,1093.4833 88.170602,846.72791 38.414557,508.96953 137.02611,1175.1767 77.219798,839.05228 33.527228,593.49063 92.090764,1089.2529 86.953883,839.8873 79.922529,498.55616 94.258611,1171.8693 77.05144,830.8997 64.480434,581.79825 60.446697,1080.9912 86.604113,832.94814 122.40834,493.42723 52.242857,1163.2279 77.906198,822.7903 96.65501,574.07752 30.087614,1068.8286 87.126808,826.01986 165.20196,493.66363 11.641466,1149.3887 79.770594,814.85198 129.54354,570.45022 1.4922957,1052.957 88.513726,819.21172 207.62851,499.26163 -26.905253,1130.5699 82.615223,807.20993 162.62736,570.97355 -24.888293,1033.6265 90.742994,812.63109 249.0189,510.13295 -62.789397,1107.0683 86.395226,799.98466 195.38471,575.63926 -48.638114,1011.1421 93.779455,806.38175 288.72038,526.10613 -95.445049,1079.2545 91.050988,793.29012 227.29899,584.37376 -69.382619,985.85836 97.575222,800.56226 326.10683,546.92927 -124.35721,1047.5672 96.509086,787.2319 c 161.357814,-190.1926 -183.30374,170.94211 5.561344,8.0325 258.51821,-222.99041 -251.14035,217.2417 0.61301,-13.35888 183.92291,-168.46937 -203.28306,146.62014 4.51076,8.66619 284.42782,-188.83115 -276.38765,184.05246 2.28248,-13.17671 203.58744,-144.08929 -220.05649,119.98587 3.38903,9.1632 305.85185,-151.6939 -297.27614,147.96059 3.91597,-12.78674 220.04126,-117.43682 -233.3595,91.45936 2.21385,9.5157 322.45239,-112.16434 -313.47641,109.53531 5.48769,-12.1951 233.02491,-88.93232 -242.98229,61.49047 1.00376,9.71813 333.96768,-70.86588 -324.73297,69.38258 6.97287,-11.41115 242.33361,-59.0253 -248.7731,30.55185 -0.22216,9.76731 340.2161,-28.44984 -330.8683,28.13564 8.34808,-10.44724 247.82057,-28.18741 -250.64061,-0.8686 -1.44458,9.66245 341.09911,14.41488 -331.78562,-13.55502 9.59165,-9.31857 249.39925,3.09501 -248.555373,-32.27535 -2.64422,9.4052 336.60278,57.05227 -327.4705,-55.03189 10.68394,-8.04294 247.04476,34.32862 -242.550261,-63.1731 -3.80215,8.99963 326.79802,98.78991 -317.99097,-95.64088 11.60774,-6.64046 240.79422,65.02085 -232.719989,-93.07457 -4.90012,8.45213 311.83946,138.96957 -303.49654,-134.74157 12.34848,-5.13326 230.74621,94.68765 -219.219586,-121.5082 -5.92081,7.77133 291.963,176.9576 -284.21578,-171.71729 12.89448,-3.54511 217.05919,122.86118 -202.261965,-148.02557 -6.84814,6.96798 267.48212,212.15491 -260.45277,-205.98493 13.23712,-1.90105 199.94903,149.09711 -182.1145384,-172.20849 -7.66745,6.05474 238.78288,244.00642 -232.582266,-237.00407 13.37101,-0.22702 179.68555,172.9817 -159.09507,-193.67557 -8.36585,5.04601 206.31789,272.00973 -201.043805,-264.28551 13.29402,1.45061 156.58832,194.13826 -133.566569,-212.08828 -8.93232,3.9577 170.59916,295.72342 -166.33475,-287.39901 13.00739,3.10536 131.0216,212.23316 -105.931646,-227.15624 -9.35791,2.80697 132.18996,314.77329 -129.002511,-305.98005 12.51561,4.71113 103.38859,226.98096 -76.62612,-238.6418 -9.63593,1.61198 91.69605,328.85898 -89.63581,-319.73561 11.82646,6.2426 74.12508,238.14918 -46.11214,-246.36383 -9.76198,0.39157 49.75605,337.75841 -48.85551,-328.44874 10.95081,7.67563 43.69257,245.56168 -14.87097,-250.20057 -9.73409,-0.83502 7.03136,341.3311 -7.30473,-331.98205 9.90244,8.9876 12.57101,249.1015 16.60475,-250.09149 -9.55267,-2.04844 -35.80422,339.52094 34.36126,-330.27979 8.69792,10.15784 -18.74882,248.7128 47.81858,-246.03832 -9.22061,-3.22955 -78.07516,332.35625 75.48534,-323.36884 7.35621,11.16787 -49.77295,244.40178 78.2783,-238.10497 -8.74313,-4.35974 -119.114788,319.95012 115.41898,-311.35815 5.8985,12.0018 -80.01214,236.23632 107.50352,-226.41658 -8.12777,-5.42117 -158.275909,302.49819 153.53239,-294.43716 4.34777,12.64643 -108.989487,224.34536 135.03334,-211.15744 -7.38423,-6.39709 -194.940927,280.27565 189.2245,-272.87273 2.72847,13.09163 -136.248009,208.91632 160.4336,-192.56824 -6.52424,-7.27214 -228.531606,253.63296 221.93244,-247.00493 1.06614,13.33037 -161.357814,190.19259 183.30374,-170.94212 -5.56135,-8.0325 -258.51821,222.99039 251.14036,-217.24172 -0.61301,13.35887 -183.9229087,168.46932 203.28307,-146.62014 -4.51075,-8.66618 -284.42783,188.8311 276.38764,-184.05247 -2.28249,13.1767 -203.587434,144.0893 220.05649,-119.98587 -3.38903,-9.16319 -305.85184,151.69389 297.27614,-147.9606 -3.91596,12.78673 -220.041265,117.43686 233.3595,-91.45936 -2.21385,-9.5157 -322.4524,112.16434 313.4764,-109.53531 -5.48769,12.1951 z"
       transform="matrix(0.44424518,0,0,0.44435813,86.949878,631.92838)" />
    <path
       sodipodi:type="star"
       style="fill:#cc00ff"
       id="path3514-6"
       sodipodi:sides="50"
       sodipodi:cx="141.92641"
       sodipodi:cy="833.638"
       sodipodi:r1="64.932732"
       sodipodi:r2="55.326595"
       sodipodi:arg1="1.2988209"
       sodipodi:arg2="1.2691063"
       inkscape:flatsided="false"
       inkscape:rounded="25.529447"
       inkscape:randomized="0"
       d="m 159.3696,896.18394 c -233.024912,88.93232 242.98228,-61.49047 -1.00376,-9.71813 -333.96769,70.86589 324.73296,-69.38258 -6.97287,11.41115 -242.333616,59.0253 248.77309,-30.55185 0.22216,-9.76731 -340.2161,28.44984 330.86829,-28.13564 -8.34809,10.44724 -247.82057,28.18741 250.64061,0.8686 1.44458,-9.66244 -341.0991,-14.41488 331.78563,13.55501 -9.59164,9.31856 -249.39925,-3.09501 248.55537,32.27535 2.64421,-9.4052 -336.60277,-57.05227 327.4705,55.03189 -10.68394,8.04294 -247.04475,-34.32862 242.55026,63.1731 3.80215,-8.99963 -326.79801,-98.78991 317.99098,95.64088 -11.60774,6.64046 -240.79421,-65.02085 232.71999,93.07457 4.90012,-8.45213 -311.83946,-138.96957 303.49654,134.74155 -12.34848,5.13326 -230.74621,-94.68765 219.21959,121.50819 5.92081,-7.77133 -291.963,-176.9576 284.21579,171.71732 -12.89447,3.54511 -217.0592,-122.86118 202.26196,148.02561 6.84813,-6.96798 -267.48212,-212.1549 260.45277,205.98489 -13.23712,1.90105 -199.94903,-149.09711 182.11454,172.20854 7.66745,-6.05473 -238.78288,-244.0064 232.58227,237.00407 -13.371004,0.22701 -179.685549,-172.9817 159.095064,193.67556 8.365854,-5.04601 -206.3179,-272.00977 201.0438,264.28547 -13.294026,-1.45061 C -68.756395,675.41696 221.39849,1081.6435 96.76424,865.59752 -73.834915,569.87414 263.09899,1152.9965 83.756854,862.49216 -47.264743,650.25902 189.6885,1089.6484 93.114767,859.68519 -39.075195,544.91193 222.11727,1165.6652 80.599153,854.97406 -22.789434,627.99308 157.22527,1093.6159 90.235083,853.36208 -1.4609711,524.50311 179.8709,1173.0977 78.408619,847.11948 4.2835418,608.97028 124.52077,1093.4833 88.170602,846.72791 38.414557,508.96953 137.02611,1175.1767 77.219798,839.05228 33.527228,593.49063 92.090764,1089.2529 86.953883,839.8873 79.922529,498.55616 94.258611,1171.8693 77.05144,830.8997 64.480434,581.79825 60.446697,1080.9912 86.604113,832.94814 122.40834,493.42723 52.242857,1163.2279 77.906198,822.7903 96.65501,574.07752 30.087614,1068.8286 87.126808,826.01986 165.20196,493.66363 11.641466,1149.3887 79.770594,814.85198 129.54354,570.45022 1.4922957,1052.957 88.513726,819.21172 207.62851,499.26163 -26.905253,1130.5699 82.615223,807.20993 162.62736,570.97355 -24.888293,1033.6265 90.742994,812.63109 249.0189,510.13295 -62.789397,1107.0683 86.395226,799.98466 195.38471,575.63926 -48.638114,1011.1421 93.779455,806.38175 288.72038,526.10613 -95.445049,1079.2545 91.050988,793.29012 227.29899,584.37376 -69.382619,985.85836 97.575222,800.56226 326.10683,546.92927 -124.35721,1047.5672 96.509086,787.2319 c 161.357814,-190.1926 -183.30374,170.94211 5.561344,8.0325 258.51821,-222.99041 -251.14035,217.2417 0.61301,-13.35888 183.92291,-168.46937 -203.28306,146.62014 4.51076,8.66619 284.42782,-188.83115 -276.38765,184.05246 2.28248,-13.17671 203.58744,-144.08929 -220.05649,119.98587 3.38903,9.1632 305.85185,-151.6939 -297.27614,147.96059 3.91597,-12.78674 220.04126,-117.43682 -233.3595,91.45936 2.21385,9.5157 322.45239,-112.16434 -313.47641,109.53531 5.48769,-12.1951 233.02491,-88.93232 -242.98229,61.49047 1.00376,9.71813 333.96768,-70.86588 -324.73297,69.38258 6.97287,-11.41115 242.33361,-59.0253 -248.7731,30.55185 -0.22216,9.76731 340.2161,-28.44984 -330.8683,28.13564 8.34808,-10.44724 247.82057,-28.18741 -250.64061,-0.8686 -1.44458,9.66245 341.09911,14.41488 -331.78562,-13.55502 9.59165,-9.31857 249.39925,3.09501 -248.555373,-32.27535 -2.64422,9.4052 336.60278,57.05227 -327.4705,-55.03189 10.68394,-8.04294 247.04476,34.32862 -242.550261,-63.1731 -3.80215,8.99963 326.79802,98.78991 -317.99097,-95.64088 11.60774,-6.64046 240.79422,65.02085 -232.719989,-93.07457 -4.90012,8.45213 311.83946,138.96957 -303.49654,-134.74157 12.34848,-5.13326 230.74621,94.68765 -219.219586,-121.5082 -5.92081,7.77133 291.963,176.9576 -284.21578,-171.71729 12.89448,-3.54511 217.05919,122.86118 -202.261965,-148.02557 -6.84814,6.96798 267.48212,212.15491 -260.45277,-205.98493 13.23712,-1.90105 199.94903,149.09711 -182.1145384,-172.20849 -7.66745,6.05474 238.78288,244.00642 -232.582266,-237.00407 13.37101,-0.22702 179.68555,172.9817 -159.09507,-193.67557 -8.36585,5.04601 206.31789,272.00973 -201.043805,-264.28551 13.29402,1.45061 156.58832,194.13826 -133.566569,-212.08828 -8.93232,3.9577 170.59916,295.72342 -166.33475,-287.39901 13.00739,3.10536 131.0216,212.23316 -105.931646,-227.15624 -9.35791,2.80697 132.18996,314.77329 -129.002511,-305.98005 12.51561,4.71113 103.38859,226.98096 -76.62612,-238.6418 -9.63593,1.61198 91.69605,328.85898 -89.63581,-319.73561 11.82646,6.2426 74.12508,238.14918 -46.11214,-246.36383 -9.76198,0.39157 49.75605,337.75841 -48.85551,-328.44874 10.95081,7.67563 43.69257,245.56168 -14.87097,-250.20057 -9.73409,-0.83502 7.03136,341.3311 -7.30473,-331.98205 9.90244,8.9876 12.57101,249.1015 16.60475,-250.09149 -9.55267,-2.04844 -35.80422,339.52094 34.36126,-330.27979 8.69792,10.15784 -18.74882,248.7128 47.81858,-246.03832 -9.22061,-3.22955 -78.07516,332.35625 75.48534,-323.36884 7.35621,11.16787 -49.77295,244.40178 78.2783,-238.10497 -8.74313,-4.35974 -119.114788,319.95012 115.41898,-311.35815 5.8985,12.0018 -80.01214,236.23632 107.50352,-226.41658 -8.12777,-5.42117 -158.275909,302.49819 153.53239,-294.43716 4.34777,12.64643 -108.989487,224.34536 135.03334,-211.15744 -7.38423,-6.39709 -194.940927,280.27565 189.2245,-272.87273 2.72847,13.09163 -136.248009,208.91632 160.4336,-192.56824 -6.52424,-7.27214 -228.531606,253.63296 221.93244,-247.00493 1.06614,13.33037 -161.357814,190.19259 183.30374,-170.94212 -5.56135,-8.0325 -258.51821,222.99039 251.14036,-217.24172 -0.61301,13.35887 -183.9229087,168.46932 203.28307,-146.62014 -4.51075,-8.66618 -284.42783,188.8311 276.38764,-184.05247 -2.28249,13.1767 -203.587434,144.0893 220.05649,-119.98587 -3.38903,-9.16319 -305.85184,151.69389 297.27614,-147.9606 -3.91596,12.78673 -220.041265,117.43686 233.3595,-91.45936 -2.21385,-9.5157 -322.4524,112.16434 313.4764,-109.53531 -5.48769,12.1951 z"
       transform="matrix(0.44424518,0,0,0.44435813,186.94988,631.92838)" />
    <path
       sodipodi:type="star"
       style="fill:#d4aa00"
       id="path3514-26"
       sodipodi:sides="50"
       sodipodi:cx="141.92641"
       sodipodi:cy="833.638"
       sodipodi:r1="64.932732"
       sodipodi:r2="55.326595"
       sodipodi:arg1="1.2988209"
       sodipodi:arg2="1.2691063"
       inkscape:flatsided="false"
       inkscape:rounded="25.529447"
       inkscape:randomized="0"
       d="m 159.3696,896.18394 c -233.024912,88.93232 242.98228,-61.49047 -1.00376,-9.71813 -333.96769,70.86589 324.73296,-69.38258 -6.97287,11.41115 -242.333616,59.0253 248.77309,-30.55185 0.22216,-9.76731 -340.2161,28.44984 330.86829,-28.13564 -8.34809,10.44724 -247.82057,28.18741 250.64061,0.8686 1.44458,-9.66244 -341.0991,-14.41488 331.78563,13.55501 -9.59164,9.31856 -249.39925,-3.09501 248.55537,32.27535 2.64421,-9.4052 -336.60277,-57.05227 327.4705,55.03189 -10.68394,8.04294 -247.04475,-34.32862 242.55026,63.1731 3.80215,-8.99963 -326.79801,-98.78991 317.99098,95.64088 -11.60774,6.64046 -240.79421,-65.02085 232.71999,93.07457 4.90012,-8.45213 -311.83946,-138.96957 303.49654,134.74155 -12.34848,5.13326 -230.74621,-94.68765 219.21959,121.50819 5.92081,-7.77133 -291.963,-176.9576 284.21579,171.71732 -12.89447,3.54511 -217.0592,-122.86118 202.26196,148.02561 6.84813,-6.96798 -267.48212,-212.1549 260.45277,205.98489 -13.23712,1.90105 -199.94903,-149.09711 182.11454,172.20854 7.66745,-6.05473 -238.78288,-244.0064 232.58227,237.00407 -13.371004,0.22701 -179.685549,-172.9817 159.095064,193.67556 8.365854,-5.04601 -206.3179,-272.00977 201.0438,264.28547 -13.294026,-1.45061 C -68.756395,675.41696 221.39849,1081.6435 96.76424,865.59752 -73.834915,569.87414 263.09899,1152.9965 83.756854,862.49216 -47.264743,650.25902 189.6885,1089.6484 93.114767,859.68519 -39.075195,544.91193 222.11727,1165.6652 80.599153,854.97406 -22.789434,627.99308 157.22527,1093.6159 90.235083,853.36208 -1.4609711,524.50311 179.8709,1173.0977 78.408619,847.11948 4.2835418,608.97028 124.52077,1093.4833 88.170602,846.72791 38.414557,508.96953 137.02611,1175.1767 77.219798,839.05228 33.527228,593.49063 92.090764,1089.2529 86.953883,839.8873 79.922529,498.55616 94.258611,1171.8693 77.05144,830.8997 64.480434,581.79825 60.446697,1080.9912 86.604113,832.94814 122.40834,493.42723 52.242857,1163.2279 77.906198,822.7903 96.65501,574.07752 30.087614,1068.8286 87.126808,826.01986 165.20196,493.66363 11.641466,1149.3887 79.770594,814.85198 129.54354,570.45022 1.4922957,1052.957 88.513726,819.21172 207.62851,499.26163 -26.905253,1130.5699 82.615223,807.20993 162.62736,570.97355 -24.888293,1033.6265 90.742994,812.63109 249.0189,510.13295 -62.789397,1107.0683 86.395226,799.98466 195.38471,575.63926 -48.638114,1011.1421 93.779455,806.38175 288.72038,526.10613 -95.445049,1079.2545 91.050988,793.29012 227.29899,584.37376 -69.382619,985.85836 97.575222,800.56226 326.10683,546.92927 -124.35721,1047.5672 96.509086,787.2319 c 161.357814,-190.1926 -183.30374,170.94211 5.561344,8.0325 258.51821,-222.99041 -251.14035,217.2417 0.61301,-13.35888 183.92291,-168.46937 -203.28306,146.62014 4.51076,8.66619 284.42782,-188.83115 -276.38765,184.05246 2.28248,-13.17671 203.58744,-144.08929 -220.05649,119.98587 3.38903,9.1632 305.85185,-151.6939 -297.27614,147.96059 3.91597,-12.78674 220.04126,-117.43682 -233.3595,91.45936 2.21385,9.5157 322.45239,-112.16434 -313.47641,109.53531 5.48769,-12.1951 233.02491,-88.93232 -242.98229,61.49047 1.00376,9.71813 333.96768,-70.86588 -324.73297,69.38258 6.97287,-11.41115 242.33361,-59.0253 -248.7731,30.55185 -0.22216,9.76731 340.2161,-28.44984 -330.8683,28.13564 8.34808,-10.44724 247.82057,-28.18741 -250.64061,-0.8686 -1.44458,9.66245 341.09911,14.41488 -331.78562,-13.55502 9.59165,-9.31857 249.39925,3.09501 -248.555373,-32.27535 -2.64422,9.4052 336.60278,57.05227 -327.4705,-55.03189 10.68394,-8.04294 247.04476,34.32862 -242.550261,-63.1731 -3.80215,8.99963 326.79802,98.78991 -317.99097,-95.64088 11.60774,-6.64046 240.79422,65.02085 -232.719989,-93.07457 -4.90012,8.45213 311.83946,138.96957 -303.49654,-134.74157 12.34848,-5.13326 230.74621,94.68765 -219.219586,-121.5082 -5.92081,7.77133 291.963,176.9576 -284.21578,-171.71729 12.89448,-3.54511 217.05919,122.86118 -202.261965,-148.02557 -6.84814,6.96798 267.48212,212.15491 -260.45277,-205.98493 13.23712,-1.90105 199.94903,149.09711 -182.1145384,-172.20849 -7.66745,6.05474 238.78288,244.00642 -232.582266,-237.00407 13.37101,-0.22702 179.68555,172.9817 -159.09507,-193.67557 -8.36585,5.04601 206.31789,272.00973 -201.043805,-264.28551 13.29402,1.45061 156.58832,194.13826 -133.566569,-212.08828 -8.93232,3.9577 170.59916,295.72342 -166.33475,-287.39901 13.00739,3.10536 131.0216,212.23316 -105.931646,-227.15624 -9.35791,2.80697 132.18996,314.77329 -129.002511,-305.98005 12.51561,4.71113 103.38859,226.98096 -76.62612,-238.6418 -9.63593,1.61198 91.69605,328.85898 -89.63581,-319.73561 11.82646,6.2426 74.12508,238.14918 -46.11214,-246.36383 -9.76198,0.39157 49.75605,337.75841 -48.85551,-328.44874 10.95081,7.67563 43.69257,245.56168 -14.87097,-250.20057 -9.73409,-0.83502 7.03136,341.3311 -7.30473,-331.98205 9.90244,8.9876 12.57101,249.1015 16.60475,-250.09149 -9.55267,-2.04844 -35.80422,339.52094 34.36126,-330.27979 8.69792,10.15784 -18.74882,248.7128 47.81858,-246.03832 -9.22061,-3.22955 -78.07516,332.35625 75.48534,-323.36884 7.35621,11.16787 -49.77295,244.40178 78.2783,-238.10497 -8.74313,-4.35974 -119.114788,319.95012 115.41898,-311.35815 5.8985,12.0018 -80.01214,236.23632 107.50352,-226.41658 -8.12777,-5.42117 -158.275909,302.49819 153.53239,-294.43716 4.34777,12.64643 -108.989487,224.34536 135.03334,-211.15744 -7.38423,-6.39709 -194.940927,280.27565 189.2245,-272.87273 2.72847,13.09163 -136.248009,208.91632 160.4336,-192.56824 -6.52424,-7.27214 -228.531606,253.63296 221.93244,-247.00493 1.06614,13.33037 -161.357814,190.19259 183.30374,-170.94212 -5.56135,-8.0325 -258.51821,222.99039 251.14036,-217.24172 -0.61301,13.35887 -183.9229087,168.46932 203.28307,-146.62014 -4.51075,-8.66618 -284.42783,188.8311 276.38764,-184.05247 -2.28249,13.1767 -203.587434,144.0893 220.05649,-119.98587 -3.38903,-9.16319 -305.85184,151.69389 297.27614,-147.9606 -3.91596,12.78673 -220.041265,117.43686 233.3595,-91.45936 -2.21385,-9.5157 -322.4524,112.16434 313.4764,-109.53531 -5.48769,12.1951 z"
       transform="matrix(0.44424518,0,0,0.44435813,286.94988,631.92838)" />
  </g>
</svg>
